solid OpenSCAD_Model
  facet normal 0 1 -0
    outer loop
      vertex -5 3 7.07107
      vertex -17.3876 3 10
      vertex -2.07107 3 10
    endloop
  endfacet
  facet normal -0 1 0
    outer loop
      vertex -17.5 3 9.61276
      vertex -17.3876 3 10
      vertex -5 3 7.07107
    endloop
  endfacet
  facet normal 0 1 0
    outer loop
      vertex -17.3876 3 10
      vertex -17.5 3 9.61276
      vertex -17.4832 3 9.68462
    endloop
  endfacet
  facet normal 0 1 -0
    outer loop
      vertex -5 3 2.92893
      vertex -17.5 3 9.61276
      vertex -5 3 7.07107
    endloop
  endfacet
  facet normal 0 1 0
    outer loop
      vertex -5 3 2.92893
      vertex -17.5 3 0.387238
      vertex -17.5 3 9.61276
    endloop
  endfacet
  facet normal 0 1 -0
    outer loop
      vertex -17.3876 3 0
      vertex -17.5 3 0.387238
      vertex -5 3 2.92893
    endloop
  endfacet
  facet normal 0 1 0
    outer loop
      vertex -17.3876 3 0
      vertex -5 3 2.92893
      vertex -2.07107 3 0
    endloop
  endfacet
  facet normal 0 1 0
    outer loop
      vertex -17.5 3 0.387238
      vertex -17.3876 3 0
      vertex -17.4832 3 0.315384
    endloop
  endfacet
  facet normal 0 1 0
    outer loop
      vertex 17.5 3 9.61276
      vertex 17.3876 3 10
      vertex 17.4832 3 9.68462
    endloop
  endfacet
  facet normal 0 1 0
    outer loop
      vertex 17.3876 3 10
      vertex 17.5 3 9.61276
      vertex 5 3 7.07107
    endloop
  endfacet
  facet normal 0 1 0
    outer loop
      vertex 17.3876 3 10
      vertex 5 3 7.07107
      vertex 2.07107 3 10
    endloop
  endfacet
  facet normal 0 1 0
    outer loop
      vertex 17.5 3 9.61276
      vertex 5 3 2.92893
      vertex 5 3 7.07107
    endloop
  endfacet
  facet normal 0 1 -0
    outer loop
      vertex 17.5 3 0.387238
      vertex 5 3 2.92893
      vertex 17.5 3 9.61276
    endloop
  endfacet
  facet normal 0 1 0
    outer loop
      vertex 17.3876 3 0
      vertex 17.5 3 0.387238
      vertex 17.4832 3 0.315384
    endloop
  endfacet
  facet normal 0 1 0
    outer loop
      vertex 17.5 3 0.387238
      vertex 17.3876 3 0
      vertex 5 3 2.92893
    endloop
  endfacet
  facet normal 0 1 0
    outer loop
      vertex 5 3 2.92893
      vertex 17.3876 3 0
      vertex 2.07107 3 0
    endloop
  endfacet
  facet normal 0.957 0 -0.290088
    outer loop
      vertex 17.4832 0 0.315384
      vertex 17.3876 3 0
      vertex 17.4832 3 0.315384
    endloop
  endfacet
  facet normal 0.957 0 -0.290088
    outer loop
      vertex 17.3876 3 0
      vertex 17.4832 0 0.315384
      vertex 17.3876 0 0
    endloop
  endfacet
  facet normal 0.973743 -0 0.227649
    outer loop
      vertex 17.4832 0 9.68462
      vertex 17.5 3 9.61276
      vertex 17.4832 3 9.68462
    endloop
  endfacet
  facet normal 0.973743 0 0.227649
    outer loop
      vertex 17.5 3 9.61276
      vertex 17.4832 0 9.68462
      vertex 17.5 0 9.61276
    endloop
  endfacet
  facet normal -0.956999 0 0.290092
    outer loop
      vertex -17.4832 0 9.68462
      vertex -17.3876 3 10
      vertex -17.4832 3 9.68462
    endloop
  endfacet
  facet normal -0.956999 0 0.290092
    outer loop
      vertex -17.3876 3 10
      vertex -17.4832 0 9.68462
      vertex -17.3876 0 10
    endloop
  endfacet
  facet normal 0 0 1
    outer loop
      vertex 2.07107 32 10
      vertex 0.955 21.5 10
      vertex 2.07107 3 10
    endloop
  endfacet
  facet normal 0 0 1
    outer loop
      vertex 2.07107 32 10
      vertex 0.922459 21.7472 10
      vertex 0.955 21.5 10
    endloop
  endfacet
  facet normal 0 0 1
    outer loop
      vertex 2.07107 32 10
      vertex 0.827054 21.9775 10
      vertex 0.922459 21.7472 10
    endloop
  endfacet
  facet normal 0 0 1
    outer loop
      vertex 2.07107 32 10
      vertex 0.675286 22.1753 10
      vertex 0.827054 21.9775 10
    endloop
  endfacet
  facet normal 0 0 1
    outer loop
      vertex 2.07107 32 10
      vertex 0.4775 22.3271 10
      vertex 0.675286 22.1753 10
    endloop
  endfacet
  facet normal 0 0 1
    outer loop
      vertex 2.07107 32 10
      vertex 0.247171 22.4225 10
      vertex 0.4775 22.3271 10
    endloop
  endfacet
  facet normal 0 0 1
    outer loop
      vertex 2.07107 32 10
      vertex 0 22.455 10
      vertex 0.247171 22.4225 10
    endloop
  endfacet
  facet normal -0 0 1
    outer loop
      vertex -2.07107 32 10
      vertex 0 22.455 10
      vertex 2.07107 32 10
    endloop
  endfacet
  facet normal 0 0 1
    outer loop
      vertex 0 22.455 10
      vertex -2.07107 32 10
      vertex -0.247171 22.4225 10
    endloop
  endfacet
  facet normal 0 0 1
    outer loop
      vertex -0.247171 22.4225 10
      vertex -2.07107 32 10
      vertex -0.4775 22.3271 10
    endloop
  endfacet
  facet normal 0 0 1
    outer loop
      vertex -0.4775 22.3271 10
      vertex -2.07107 32 10
      vertex -0.675286 22.1753 10
    endloop
  endfacet
  facet normal 0 0 1
    outer loop
      vertex -0.675286 22.1753 10
      vertex -2.07107 32 10
      vertex -0.827054 21.9775 10
    endloop
  endfacet
  facet normal 0 0 1
    outer loop
      vertex -0.922459 21.7472 10
      vertex -2.07107 32 10
      vertex -0.955 21.5 10
    endloop
  endfacet
  facet normal 0 0 1
    outer loop
      vertex -0.827054 21.9775 10
      vertex -2.07107 32 10
      vertex -0.922459 21.7472 10
    endloop
  endfacet
  facet normal -0 0 1
    outer loop
      vertex 2.07107 3 10
      vertex 17.3876 0 10
      vertex 17.3876 3 10
    endloop
  endfacet
  facet normal -0 0 1
    outer loop
      vertex 0.922459 21.2528 10
      vertex 2.07107 3 10
      vertex 0.955 21.5 10
    endloop
  endfacet
  facet normal -0 0 1
    outer loop
      vertex 0.827054 21.0225 10
      vertex 2.07107 3 10
      vertex 0.922459 21.2528 10
    endloop
  endfacet
  facet normal -0 0 1
    outer loop
      vertex 0.675286 20.8247 10
      vertex 2.07107 3 10
      vertex 0.827054 21.0225 10
    endloop
  endfacet
  facet normal -0 0 1
    outer loop
      vertex 0.4775 20.6729 10
      vertex 2.07107 3 10
      vertex 0.675286 20.8247 10
    endloop
  endfacet
  facet normal -0 0 1
    outer loop
      vertex 0.247171 20.5775 10
      vertex 2.07107 3 10
      vertex 0.4775 20.6729 10
    endloop
  endfacet
  facet normal -0 0 1
    outer loop
      vertex 0 20.545 10
      vertex 2.07107 3 10
      vertex 0.247171 20.5775 10
    endloop
  endfacet
  facet normal 0 0 1
    outer loop
      vertex -2.07107 3 10
      vertex 0 20.545 10
      vertex -0.247171 20.5775 10
    endloop
  endfacet
  facet normal 0 0 1
    outer loop
      vertex -2.07107 3 10
      vertex -0.247171 20.5775 10
      vertex -0.4775 20.6729 10
    endloop
  endfacet
  facet normal 0 0 1
    outer loop
      vertex -2.07107 3 10
      vertex -0.4775 20.6729 10
      vertex -0.675286 20.8247 10
    endloop
  endfacet
  facet normal 0 0 1
    outer loop
      vertex -2.07107 3 10
      vertex -0.675286 20.8247 10
      vertex -0.827054 21.0225 10
    endloop
  endfacet
  facet normal 0 0 1
    outer loop
      vertex -2.07107 3 10
      vertex -0.827054 21.0225 10
      vertex -0.922459 21.2528 10
    endloop
  endfacet
  facet normal 0 0 1
    outer loop
      vertex -2.07107 3 10
      vertex -0.955 21.5 10
      vertex -2.07107 32 10
    endloop
  endfacet
  facet normal 0 0 1
    outer loop
      vertex -2.07107 3 10
      vertex -0.922459 21.2528 10
      vertex -0.955 21.5 10
    endloop
  endfacet
  facet normal 0 0 1
    outer loop
      vertex 0 20.545 10
      vertex -2.07107 3 10
      vertex 2.07107 3 10
    endloop
  endfacet
  facet normal -0 0 1
    outer loop
      vertex -2.07107 3 10
      vertex 17.3876 0 10
      vertex 2.07107 3 10
    endloop
  endfacet
  facet normal 0 0 1
    outer loop
      vertex -17.3876 0 10
      vertex -2.07107 3 10
      vertex -17.3876 3 10
    endloop
  endfacet
  facet normal 0 0 1
    outer loop
      vertex -2.07107 3 10
      vertex -17.3876 0 10
      vertex 17.3876 0 10
    endloop
  endfacet
  facet normal -0.973739 0 -0.227667
    outer loop
      vertex -17.4832 0 0.315384
      vertex -17.5 3 0.387238
      vertex -17.4832 3 0.315384
    endloop
  endfacet
  facet normal -0.973739 -0 -0.227667
    outer loop
      vertex -17.5 3 0.387238
      vertex -17.4832 0 0.315384
      vertex -17.5 0 0.387238
    endloop
  endfacet
  facet normal 0 -1 0
    outer loop
      vertex -17.5 0 9.61276
      vertex -17.3876 0 10
      vertex -17.4832 0 9.68462
    endloop
  endfacet
  facet normal 0 -1 0
    outer loop
      vertex -17.3876 0 0
      vertex -17.3876 0 10
      vertex -17.5 0 9.61276
    endloop
  endfacet
  facet normal 0 -1 0
    outer loop
      vertex -17.3876 0 10
      vertex -17.3876 0 0
      vertex 17.3876 0 10
    endloop
  endfacet
  facet normal 0 -1 0
    outer loop
      vertex 17.3876 0 10
      vertex 17.5 0 9.61276
      vertex 17.4832 0 9.68462
    endloop
  endfacet
  facet normal 0 -1 0
    outer loop
      vertex -17.3876 0 0
      vertex -17.5 0 9.61276
      vertex -17.5 0 0.387238
    endloop
  endfacet
  facet normal 0 -1 0
    outer loop
      vertex 17.3876 0 0
      vertex 17.3876 0 10
      vertex -17.3876 0 0
    endloop
  endfacet
  facet normal 0 -1 0
    outer loop
      vertex -17.3876 0 0
      vertex -17.5 0 0.387238
      vertex -17.4832 0 0.315384
    endloop
  endfacet
  facet normal 0 -1 0
    outer loop
      vertex 17.3876 0 10
      vertex 17.3876 0 0
      vertex 17.5 0 9.61276
    endloop
  endfacet
  facet normal 0 -1 -0
    outer loop
      vertex 17.5 0 9.61276
      vertex 17.3876 0 0
      vertex 17.5 0 0.387238
    endloop
  endfacet
  facet normal 0 -1 0
    outer loop
      vertex 17.5 0 0.387238
      vertex 17.3876 0 0
      vertex 17.4832 0 0.315384
    endloop
  endfacet
  facet normal -0.973743 0 0.227649
    outer loop
      vertex -17.5 0 9.61276
      vertex -17.4832 3 9.68462
      vertex -17.5 3 9.61276
    endloop
  endfacet
  facet normal -0.973743 0 0.227649
    outer loop
      vertex -17.4832 3 9.68462
      vertex -17.5 0 9.61276
      vertex -17.4832 0 9.68462
    endloop
  endfacet
  facet normal -1 0 0
    outer loop
      vertex -17.5 0 0.387238
      vertex -17.5 3 9.61276
      vertex -17.5 3 0.387238
    endloop
  endfacet
  facet normal -1 -0 0
    outer loop
      vertex -17.5 3 9.61276
      vertex -17.5 0 0.387238
      vertex -17.5 0 9.61276
    endloop
  endfacet
  facet normal 0 0 -1
    outer loop
      vertex 17.3876 0 0
      vertex 2.07107 3 0
      vertex 17.3876 3 0
    endloop
  endfacet
  facet normal 0 0 -1
    outer loop
      vertex 2.07107 3 0
      vertex 0.955 21.5 0
      vertex 2.07107 32 0
    endloop
  endfacet
  facet normal 0 0 -1
    outer loop
      vertex 2.07107 3 0
      vertex 0.922459 21.2528 0
      vertex 0.955 21.5 0
    endloop
  endfacet
  facet normal 0 0 -1
    outer loop
      vertex 2.07107 3 0
      vertex 0.827054 21.0225 0
      vertex 0.922459 21.2528 0
    endloop
  endfacet
  facet normal 0 0 -1
    outer loop
      vertex 2.07107 3 0
      vertex 0.675286 20.8247 0
      vertex 0.827054 21.0225 0
    endloop
  endfacet
  facet normal 0 0 -1
    outer loop
      vertex 2.07107 3 0
      vertex 0.4775 20.6729 0
      vertex 0.675286 20.8247 0
    endloop
  endfacet
  facet normal 0 0 -1
    outer loop
      vertex 2.07107 3 0
      vertex 0.247171 20.5775 0
      vertex 0.4775 20.6729 0
    endloop
  endfacet
  facet normal 0 0 -1
    outer loop
      vertex 2.07107 3 0
      vertex 0 20.545 0
      vertex 0.247171 20.5775 0
    endloop
  endfacet
  facet normal 0 0 -1
    outer loop
      vertex -2.07107 3 0
      vertex 0 20.545 0
      vertex 2.07107 3 0
    endloop
  endfacet
  facet normal -0 0 -1
    outer loop
      vertex 0 20.545 0
      vertex -2.07107 3 0
      vertex -0.247171 20.5775 0
    endloop
  endfacet
  facet normal -0 0 -1
    outer loop
      vertex -0.247171 20.5775 0
      vertex -2.07107 3 0
      vertex -0.4775 20.6729 0
    endloop
  endfacet
  facet normal -0 0 -1
    outer loop
      vertex -0.4775 20.6729 0
      vertex -2.07107 3 0
      vertex -0.675286 20.8247 0
    endloop
  endfacet
  facet normal -0 0 -1
    outer loop
      vertex -0.675286 20.8247 0
      vertex -2.07107 3 0
      vertex -0.827054 21.0225 0
    endloop
  endfacet
  facet normal -0 0 -1
    outer loop
      vertex -0.922459 21.2528 0
      vertex -2.07107 3 0
      vertex -0.955 21.5 0
    endloop
  endfacet
  facet normal -0 0 -1
    outer loop
      vertex -0.827054 21.0225 0
      vertex -2.07107 3 0
      vertex -0.922459 21.2528 0
    endloop
  endfacet
  facet normal 0 0 -1
    outer loop
      vertex 17.3876 0 0
      vertex -2.07107 3 0
      vertex 2.07107 3 0
    endloop
  endfacet
  facet normal 0 0 -1
    outer loop
      vertex -17.3876 0 0
      vertex -2.07107 3 0
      vertex 17.3876 0 0
    endloop
  endfacet
  facet normal -0 0 -1
    outer loop
      vertex -2.07107 3 0
      vertex -17.3876 0 0
      vertex -17.3876 3 0
    endloop
  endfacet
  facet normal 0 0 -1
    outer loop
      vertex 0.922459 21.7472 0
      vertex 2.07107 32 0
      vertex 0.955 21.5 0
    endloop
  endfacet
  facet normal 0 0 -1
    outer loop
      vertex 0.827054 21.9775 0
      vertex 2.07107 32 0
      vertex 0.922459 21.7472 0
    endloop
  endfacet
  facet normal 0 0 -1
    outer loop
      vertex 0.675286 22.1753 0
      vertex 2.07107 32 0
      vertex 0.827054 21.9775 0
    endloop
  endfacet
  facet normal 0 0 -1
    outer loop
      vertex 0.4775 22.3271 0
      vertex 2.07107 32 0
      vertex 0.675286 22.1753 0
    endloop
  endfacet
  facet normal 0 0 -1
    outer loop
      vertex 0.247171 22.4225 0
      vertex 2.07107 32 0
      vertex 0.4775 22.3271 0
    endloop
  endfacet
  facet normal 0 0 -1
    outer loop
      vertex 0 22.455 0
      vertex 2.07107 32 0
      vertex 0.247171 22.4225 0
    endloop
  endfacet
  facet normal 0 0 -1
    outer loop
      vertex -2.07107 32 0
      vertex 0 22.455 0
      vertex -0.247171 22.4225 0
    endloop
  endfacet
  facet normal 0 0 -1
    outer loop
      vertex -2.07107 32 0
      vertex -0.247171 22.4225 0
      vertex -0.4775 22.3271 0
    endloop
  endfacet
  facet normal 0 0 -1
    outer loop
      vertex -2.07107 32 0
      vertex -0.4775 22.3271 0
      vertex -0.675286 22.1753 0
    endloop
  endfacet
  facet normal 0 0 -1
    outer loop
      vertex -2.07107 32 0
      vertex -0.675286 22.1753 0
      vertex -0.827054 21.9775 0
    endloop
  endfacet
  facet normal 0 0 -1
    outer loop
      vertex -2.07107 32 0
      vertex -0.827054 21.9775 0
      vertex -0.922459 21.7472 0
    endloop
  endfacet
  facet normal 0 0 -1
    outer loop
      vertex 0 22.455 0
      vertex -2.07107 32 0
      vertex 2.07107 32 0
    endloop
  endfacet
  facet normal 0 0 -1
    outer loop
      vertex -0.955 21.5 0
      vertex -2.07107 32 0
      vertex -0.922459 21.7472 0
    endloop
  endfacet
  facet normal 0 0 -1
    outer loop
      vertex -2.07107 32 0
      vertex -0.955 21.5 0
      vertex -2.07107 3 0
    endloop
  endfacet
  facet normal 1 -0 0
    outer loop
      vertex 17.5 0 9.61276
      vertex 17.5 3 0.387238
      vertex 17.5 3 9.61276
    endloop
  endfacet
  facet normal 1 0 0
    outer loop
      vertex 17.5 3 0.387238
      vertex 17.5 0 9.61276
      vertex 17.5 0 0.387238
    endloop
  endfacet
  facet normal 0.956999 -0 0.290092
    outer loop
      vertex 17.3876 0 10
      vertex 17.4832 3 9.68462
      vertex 17.3876 3 10
    endloop
  endfacet
  facet normal 0.956999 0 0.290092
    outer loop
      vertex 17.4832 3 9.68462
      vertex 17.3876 0 10
      vertex 17.4832 0 9.68462
    endloop
  endfacet
  facet normal -0.957 0 -0.290088
    outer loop
      vertex -17.3876 0 0
      vertex -17.4832 3 0.315384
      vertex -17.3876 3 0
    endloop
  endfacet
  facet normal -0.957 -0 -0.290088
    outer loop
      vertex -17.4832 3 0.315384
      vertex -17.3876 0 0
      vertex -17.4832 0 0.315384
    endloop
  endfacet
  facet normal 0.973739 0 -0.227667
    outer loop
      vertex 17.5 0 0.387238
      vertex 17.4832 3 0.315384
      vertex 17.5 3 0.387238
    endloop
  endfacet
  facet normal 0.973739 0 -0.227667
    outer loop
      vertex 17.4832 3 0.315384
      vertex 17.5 0 0.387238
      vertex 17.4832 0 0.315384
    endloop
  endfacet
  facet normal -0.707107 0 0.707107
    outer loop
      vertex -5 3 7.07107
      vertex -2.07107 32 10
      vertex -5 32 7.07107
    endloop
  endfacet
  facet normal -0.707107 0 0.707107
    outer loop
      vertex -2.07107 32 10
      vertex -5 3 7.07107
      vertex -2.07107 3 10
    endloop
  endfacet
  facet normal 1 -0 0
    outer loop
      vertex 5 3 7.07107
      vertex 5 32 2.92893
      vertex 5 32 7.07107
    endloop
  endfacet
  facet normal 1 0 0
    outer loop
      vertex 5 32 2.92893
      vertex 5 3 7.07107
      vertex 5 3 2.92893
    endloop
  endfacet
  facet normal -0.707107 0 -0.707107
    outer loop
      vertex -2.07107 3 0
      vertex -5 32 2.92893
      vertex -2.07107 32 0
    endloop
  endfacet
  facet normal -0.707107 -0 -0.707107
    outer loop
      vertex -5 32 2.92893
      vertex -2.07107 3 0
      vertex -5 3 2.92893
    endloop
  endfacet
  facet normal -1 0 0
    outer loop
      vertex -5 3 2.92893
      vertex -5 32 7.07107
      vertex -5 32 2.92893
    endloop
  endfacet
  facet normal -1 -0 0
    outer loop
      vertex -5 32 7.07107
      vertex -5 3 2.92893
      vertex -5 3 7.07107
    endloop
  endfacet
  facet normal 0.707107 -0 0.707107
    outer loop
      vertex 2.07107 3 10
      vertex 5 32 7.07107
      vertex 2.07107 32 10
    endloop
  endfacet
  facet normal 0.707107 0 0.707107
    outer loop
      vertex 5 32 7.07107
      vertex 2.07107 3 10
      vertex 5 3 7.07107
    endloop
  endfacet
  facet normal 0.707107 0 -0.707107
    outer loop
      vertex 5 3 2.92893
      vertex 2.07107 32 0
      vertex 5 32 2.92893
    endloop
  endfacet
  facet normal 0.707107 0 -0.707107
    outer loop
      vertex 2.07107 32 0
      vertex 5 3 2.92893
      vertex 2.07107 3 0
    endloop
  endfacet
  facet normal 0.707107 0.707107 0
    outer loop
      vertex 5 32 7.07107
      vertex 4 33 3.34315
      vertex 4 33 6.65685
    endloop
  endfacet
  facet normal 0.707107 0.707107 0
    outer loop
      vertex 4 33 3.34315
      vertex 5 32 7.07107
      vertex 5 32 2.92893
    endloop
  endfacet
  facet normal 0 0.707107 0.707107
    outer loop
      vertex 1.65685 33 9
      vertex -2.07107 32 10
      vertex 2.07107 32 10
    endloop
  endfacet
  facet normal 0 0.707107 0.707107
    outer loop
      vertex -2.07107 32 10
      vertex 1.65685 33 9
      vertex -1.65685 33 9
    endloop
  endfacet
  facet normal 0.499999 0.707108 -0.499999
    outer loop
      vertex 5 32 2.92893
      vertex 1.65685 33 1
      vertex 4 33 3.34315
    endloop
  endfacet
  facet normal 0.499999 0.707108 -0.499999
    outer loop
      vertex 1.65685 33 1
      vertex 5 32 2.92893
      vertex 2.07107 32 0
    endloop
  endfacet
  facet normal 0.499999 0.707108 0.499999
    outer loop
      vertex 5 32 7.07107
      vertex 1.65685 33 9
      vertex 2.07107 32 10
    endloop
  endfacet
  facet normal 0.499999 0.707108 0.499999
    outer loop
      vertex 1.65685 33 9
      vertex 5 32 7.07107
      vertex 4 33 6.65685
    endloop
  endfacet
  facet normal 0 0.707107 -0.707107
    outer loop
      vertex 2.07107 32 0
      vertex -1.65685 33 1
      vertex 1.65685 33 1
    endloop
  endfacet
  facet normal 0 0.707107 -0.707107
    outer loop
      vertex -1.65685 33 1
      vertex 2.07107 32 0
      vertex -2.07107 32 0
    endloop
  endfacet
  facet normal -0.499999 0.707108 0.499999
    outer loop
      vertex -1.65685 33 9
      vertex -5 32 7.07107
      vertex -2.07107 32 10
    endloop
  endfacet
  facet normal -0.499999 0.707108 0.499999
    outer loop
      vertex -5 32 7.07107
      vertex -1.65685 33 9
      vertex -4 33 6.65685
    endloop
  endfacet
  facet normal -0.499999 0.707108 -0.499999
    outer loop
      vertex -1.65685 33 1
      vertex -5 32 2.92893
      vertex -4 33 3.34315
    endloop
  endfacet
  facet normal -0.499999 0.707108 -0.499999
    outer loop
      vertex -5 32 2.92893
      vertex -1.65685 33 1
      vertex -2.07107 32 0
    endloop
  endfacet
  facet normal -0.707107 0.707107 0
    outer loop
      vertex -5 32 2.92893
      vertex -4 33 6.65685
      vertex -4 33 3.34315
    endloop
  endfacet
  facet normal -0.707107 0.707107 0
    outer loop
      vertex -4 33 6.65685
      vertex -5 32 2.92893
      vertex -5 32 7.07107
    endloop
  endfacet
  facet normal 0 1 0
    outer loop
      vertex 4 33 6.65685
      vertex -1.65685 33 9
      vertex 1.65685 33 9
    endloop
  endfacet
  facet normal 0 1 0
    outer loop
      vertex 4 33 6.65685
      vertex -4 33 6.65685
      vertex -1.65685 33 9
    endloop
  endfacet
  facet normal 0 1 -0
    outer loop
      vertex 4 33 3.34315
      vertex -4 33 6.65685
      vertex 4 33 6.65685
    endloop
  endfacet
  facet normal 0 1 0
    outer loop
      vertex 4 33 3.34315
      vertex -4 33 3.34315
      vertex -4 33 6.65685
    endloop
  endfacet
  facet normal 0 1 -0
    outer loop
      vertex 1.65685 33 1
      vertex -4 33 3.34315
      vertex 4 33 3.34315
    endloop
  endfacet
  facet normal 0 1 0
    outer loop
      vertex -4 33 3.34315
      vertex 1.65685 33 1
      vertex -1.65685 33 1
    endloop
  endfacet
  facet normal 0.130366 -0.991466 0
    outer loop
      vertex -0.247171 22.4225 0
      vertex 0 22.455 10
      vertex -0.247171 22.4225 10
    endloop
  endfacet
  facet normal 0.130366 -0.991466 0
    outer loop
      vertex 0 22.455 10
      vertex -0.247171 22.4225 0
      vertex 0 22.455 0
    endloop
  endfacet
  facet normal -0.923863 0.382723 0
    outer loop
      vertex 0.827054 21.0225 0
      vertex 0.922459 21.2528 10
      vertex 0.922459 21.2528 0
    endloop
  endfacet
  facet normal -0.923863 0.382723 0
    outer loop
      vertex 0.922459 21.2528 10
      vertex 0.827054 21.0225 0
      vertex 0.827054 21.0225 10
    endloop
  endfacet
  facet normal -0.991447 0.130512 0
    outer loop
      vertex 0.922459 21.2528 0
      vertex 0.955 21.5 10
      vertex 0.955 21.5 0
    endloop
  endfacet
  facet normal -0.991447 0.130512 0
    outer loop
      vertex 0.955 21.5 10
      vertex 0.922459 21.2528 0
      vertex 0.922459 21.2528 10
    endloop
  endfacet
  facet normal 0.382665 0.923887 -0
    outer loop
      vertex -0.247171 20.5775 0
      vertex -0.4775 20.6729 10
      vertex -0.247171 20.5775 10
    endloop
  endfacet
  facet normal 0.382665 0.923887 0
    outer loop
      vertex -0.4775 20.6729 10
      vertex -0.247171 20.5775 0
      vertex -0.4775 20.6729 0
    endloop
  endfacet
  facet normal -0.608846 0.793289 0
    outer loop
      vertex 0.675286 20.8247 0
      vertex 0.4775 20.6729 10
      vertex 0.675286 20.8247 10
    endloop
  endfacet
  facet normal -0.608846 0.793289 0
    outer loop
      vertex 0.4775 20.6729 10
      vertex 0.675286 20.8247 0
      vertex 0.4775 20.6729 0
    endloop
  endfacet
  facet normal -0.608846 -0.793289 0
    outer loop
      vertex 0.4775 22.3271 0
      vertex 0.675286 22.1753 10
      vertex 0.4775 22.3271 10
    endloop
  endfacet
  facet normal -0.608846 -0.793289 -0
    outer loop
      vertex 0.675286 22.1753 10
      vertex 0.4775 22.3271 0
      vertex 0.675286 22.1753 0
    endloop
  endfacet
  facet normal -0.130366 0.991466 0
    outer loop
      vertex 0.247171 20.5775 0
      vertex 0 20.545 10
      vertex 0.247171 20.5775 10
    endloop
  endfacet
  facet normal -0.130366 0.991466 0
    outer loop
      vertex 0 20.545 10
      vertex 0.247171 20.5775 0
      vertex 0 20.545 0
    endloop
  endfacet
  facet normal 0.608846 -0.793289 0
    outer loop
      vertex -0.675286 22.1753 0
      vertex -0.4775 22.3271 10
      vertex -0.675286 22.1753 10
    endloop
  endfacet
  facet normal 0.608846 -0.793289 0
    outer loop
      vertex -0.4775 22.3271 10
      vertex -0.675286 22.1753 0
      vertex -0.4775 22.3271 0
    endloop
  endfacet
  facet normal -0.793371 0.608738 0
    outer loop
      vertex 0.675286 20.8247 0
      vertex 0.827054 21.0225 10
      vertex 0.827054 21.0225 0
    endloop
  endfacet
  facet normal -0.793371 0.608738 0
    outer loop
      vertex 0.827054 21.0225 10
      vertex 0.675286 20.8247 0
      vertex 0.675286 20.8247 10
    endloop
  endfacet
  facet normal -0.130366 -0.991466 0
    outer loop
      vertex 0 22.455 0
      vertex 0.247171 22.4225 10
      vertex 0 22.455 10
    endloop
  endfacet
  facet normal -0.130366 -0.991466 -0
    outer loop
      vertex 0.247171 22.4225 10
      vertex 0 22.455 0
      vertex 0.247171 22.4225 0
    endloop
  endfacet
  facet normal -0.793371 -0.608738 0
    outer loop
      vertex 0.827054 21.9775 0
      vertex 0.675286 22.1753 10
      vertex 0.675286 22.1753 0
    endloop
  endfacet
  facet normal -0.793371 -0.608738 0
    outer loop
      vertex 0.675286 22.1753 10
      vertex 0.827054 21.9775 0
      vertex 0.827054 21.9775 10
    endloop
  endfacet
  facet normal 0.793371 0.608738 0
    outer loop
      vertex -0.675286 20.8247 10
      vertex -0.827054 21.0225 0
      vertex -0.827054 21.0225 10
    endloop
  endfacet
  facet normal 0.793371 0.608738 0
    outer loop
      vertex -0.827054 21.0225 0
      vertex -0.675286 20.8247 10
      vertex -0.675286 20.8247 0
    endloop
  endfacet
  facet normal 0.991447 -0.130512 0
    outer loop
      vertex -0.955 21.5 10
      vertex -0.922459 21.7472 0
      vertex -0.922459 21.7472 10
    endloop
  endfacet
  facet normal 0.991447 -0.130512 0
    outer loop
      vertex -0.922459 21.7472 0
      vertex -0.955 21.5 10
      vertex -0.955 21.5 0
    endloop
  endfacet
  facet normal -0.382665 0.923887 0
    outer loop
      vertex 0.4775 20.6729 0
      vertex 0.247171 20.5775 10
      vertex 0.4775 20.6729 10
    endloop
  endfacet
  facet normal -0.382665 0.923887 0
    outer loop
      vertex 0.247171 20.5775 10
      vertex 0.4775 20.6729 0
      vertex 0.247171 20.5775 0
    endloop
  endfacet
  facet normal 0.793371 -0.608738 0
    outer loop
      vertex -0.827054 21.9775 10
      vertex -0.675286 22.1753 0
      vertex -0.675286 22.1753 10
    endloop
  endfacet
  facet normal 0.793371 -0.608738 0
    outer loop
      vertex -0.675286 22.1753 0
      vertex -0.827054 21.9775 10
      vertex -0.827054 21.9775 0
    endloop
  endfacet
  facet normal 0.608846 0.793289 -0
    outer loop
      vertex -0.4775 20.6729 0
      vertex -0.675286 20.8247 10
      vertex -0.4775 20.6729 10
    endloop
  endfacet
  facet normal 0.608846 0.793289 0
    outer loop
      vertex -0.675286 20.8247 10
      vertex -0.4775 20.6729 0
      vertex -0.675286 20.8247 0
    endloop
  endfacet
  facet normal -0.991447 -0.130512 0
    outer loop
      vertex 0.955 21.5 0
      vertex 0.922459 21.7472 10
      vertex 0.922459 21.7472 0
    endloop
  endfacet
  facet normal -0.991447 -0.130512 0
    outer loop
      vertex 0.922459 21.7472 10
      vertex 0.955 21.5 0
      vertex 0.955 21.5 10
    endloop
  endfacet
  facet normal 0.923863 -0.382723 0
    outer loop
      vertex -0.922459 21.7472 10
      vertex -0.827054 21.9775 0
      vertex -0.827054 21.9775 10
    endloop
  endfacet
  facet normal 0.923863 -0.382723 0
    outer loop
      vertex -0.827054 21.9775 0
      vertex -0.922459 21.7472 10
      vertex -0.922459 21.7472 0
    endloop
  endfacet
  facet normal 0.130366 0.991466 -0
    outer loop
      vertex 0 20.545 0
      vertex -0.247171 20.5775 10
      vertex 0 20.545 10
    endloop
  endfacet
  facet normal 0.130366 0.991466 0
    outer loop
      vertex -0.247171 20.5775 10
      vertex 0 20.545 0
      vertex -0.247171 20.5775 0
    endloop
  endfacet
  facet normal -0.923863 -0.382723 0
    outer loop
      vertex 0.922459 21.7472 0
      vertex 0.827054 21.9775 10
      vertex 0.827054 21.9775 0
    endloop
  endfacet
  facet normal -0.923863 -0.382723 0
    outer loop
      vertex 0.827054 21.9775 10
      vertex 0.922459 21.7472 0
      vertex 0.922459 21.7472 10
    endloop
  endfacet
  facet normal 0.382665 -0.923887 0
    outer loop
      vertex -0.4775 22.3271 0
      vertex -0.247171 22.4225 10
      vertex -0.4775 22.3271 10
    endloop
  endfacet
  facet normal 0.382665 -0.923887 0
    outer loop
      vertex -0.247171 22.4225 10
      vertex -0.4775 22.3271 0
      vertex -0.247171 22.4225 0
    endloop
  endfacet
  facet normal -0.382665 -0.923887 0
    outer loop
      vertex 0.247171 22.4225 0
      vertex 0.4775 22.3271 10
      vertex 0.247171 22.4225 10
    endloop
  endfacet
  facet normal -0.382665 -0.923887 -0
    outer loop
      vertex 0.4775 22.3271 10
      vertex 0.247171 22.4225 0
      vertex 0.4775 22.3271 0
    endloop
  endfacet
  facet normal 0.923863 0.382723 0
    outer loop
      vertex -0.827054 21.0225 10
      vertex -0.922459 21.2528 0
      vertex -0.922459 21.2528 10
    endloop
  endfacet
  facet normal 0.923863 0.382723 0
    outer loop
      vertex -0.922459 21.2528 0
      vertex -0.827054 21.0225 10
      vertex -0.827054 21.0225 0
    endloop
  endfacet
  facet normal 0.991447 0.130512 0
    outer loop
      vertex -0.922459 21.2528 10
      vertex -0.955 21.5 0
      vertex -0.955 21.5 10
    endloop
  endfacet
  facet normal 0.991447 0.130512 0
    outer loop
      vertex -0.955 21.5 0
      vertex -0.922459 21.2528 10
      vertex -0.922459 21.2528 0
    endloop
  endfacet
endsolid OpenSCAD_Model
